<svg data-v-423bf9ae="" xmlns="http://www.w3.org/2000/svg" viewBox="0 0 293.2285635811942 60" class="font"><!----><!----><defs data-v-423bf9ae=""><linearGradient data-v-423bf9ae="" gradientTransform="rotate(25)" id="bf5584a3-8e52-4e3d-9b7a-b141d1a38e2e" x1="0%" y1="0%" x2="100%" y2="0%"><stop data-v-423bf9ae="" offset="0%" style="stop-color: rgb(184, 41, 73); stop-opacity: 1;"></stop><stop data-v-423bf9ae="" offset="100%" style="stop-color: rgb(233, 184, 76); stop-opacity: 1;"></stop></linearGradient></defs><g data-v-423bf9ae="" id="e70b1fa9-face-41ef-aedb-12e8c5d8af46" fill="url(#bf5584a3-8e52-4e3d-9b7a-b141d1a38e2e)" transform="matrix(4.285714149475098,0,0,4.285714149475098,-1.799980878829956,-7.200000286102295)"><path d="M1.43 9.44L0.42 10.04C0.74 10.86 1.20 11.52 1.82 12.00C2.44 12.49 3.14 12.74 3.92 12.74C4.87 12.74 5.61 12.49 6.13 11.98C6.64 11.47 6.90 10.79 6.90 9.94C6.90 8.62 6.08 7.66 4.42 7.06C4.04 6.92 3.75 6.80 3.55 6.71C3.35 6.61 3.12 6.49 2.87 6.33C2.62 6.17 2.44 5.99 2.32 5.80C2.21 5.60 2.16 5.38 2.16 5.12C2.16 4.24 2.69 3.79 3.77 3.79C4.25 3.79 4.65 3.94 4.96 4.23C5.26 4.52 5.55 4.91 5.81 5.40L6.78 4.76C6.55 4.20 6.17 3.71 5.64 3.29C5.11 2.87 4.48 2.66 3.75 2.66C2.95 2.66 2.27 2.89 1.73 3.35C1.18 3.80 0.91 4.37 0.91 5.04C0.91 6.34 1.73 7.28 3.37 7.87C3.72 7.99 4.00 8.10 4.22 8.21C4.44 8.32 4.68 8.46 4.93 8.62C5.18 8.79 5.37 8.99 5.49 9.23C5.61 9.47 5.67 9.74 5.67 10.04C5.67 10.53 5.53 10.92 5.24 11.20C4.96 11.48 4.54 11.62 3.99 11.62C3.41 11.62 2.92 11.43 2.51 11.06C2.10 10.69 1.74 10.15 1.43 9.44ZM15.02 9.38C15.02 8.36 14.72 7.55 14.11 6.94C13.49 6.33 12.74 6.02 11.83 6.02C10.86 6.02 10.13 6.44 9.63 7.27L9.63 6.16L8.51 6.16L8.51 15.68L9.63 15.68L9.63 11.49C10.13 12.32 10.86 12.74 11.83 12.74C12.74 12.74 13.49 12.43 14.11 11.82C14.72 11.21 15.02 10.40 15.02 9.38ZM13.89 9.38C13.89 10.10 13.68 10.66 13.26 11.07C12.84 11.48 12.32 11.69 11.69 11.69C11.16 11.69 10.68 11.48 10.26 11.06C9.84 10.64 9.63 10.08 9.63 9.38C9.63 8.68 9.84 8.12 10.26 7.70C10.68 7.28 11.16 7.07 11.69 7.07C12.32 7.07 12.84 7.28 13.26 7.69C13.68 8.10 13.89 8.66 13.89 9.38ZM17.07 7.67C17.68 7.22 18.32 7.00 18.98 7.00C19.36 7.00 19.68 7.09 19.94 7.26C20.21 7.43 20.34 7.67 20.34 7.98L20.34 8.95C19.92 8.71 19.41 8.60 18.82 8.60C18.05 8.60 17.38 8.78 16.80 9.13C16.22 9.49 15.93 10.00 15.93 10.64C15.93 11.33 16.16 11.85 16.63 12.21C17.09 12.56 17.59 12.74 18.14 12.74C18.64 12.74 19.08 12.65 19.47 12.46C19.85 12.27 20.15 12.01 20.34 11.68L20.34 12.60L21.46 12.60L21.46 7.98C21.46 7.36 21.24 6.88 20.78 6.54C20.33 6.19 19.73 6.02 18.98 6.02C18.07 6.02 17.25 6.29 16.52 6.82ZM17.07 10.64C17.07 9.85 17.67 9.45 18.87 9.45C19.40 9.45 19.89 9.53 20.34 9.70L20.34 10.08C20.34 11.19 19.75 11.75 18.56 11.75C17.57 11.75 17.07 11.38 17.07 10.64ZM26.42 7.39L27.03 6.47C26.74 6.17 26.34 6.02 25.83 6.02C25.32 6.02 24.86 6.31 24.47 6.90L24.47 6.16L23.35 6.16L23.35 12.60L24.47 12.60L24.47 8.68C24.47 7.61 24.83 7.07 25.55 7.07C25.83 7.07 26.12 7.18 26.42 7.39ZM32.61 8.71L28.77 8.71C28.83 8.19 29.04 7.78 29.42 7.47C29.80 7.16 30.25 7.00 30.79 7.00C31.33 7.00 31.75 7.15 32.06 7.46C32.37 7.77 32.55 8.19 32.61 8.71ZM28.74 9.66L33.81 9.66C33.82 9.59 33.82 9.47 33.82 9.32C33.82 8.32 33.55 7.51 32.99 6.92C32.44 6.32 31.70 6.02 30.79 6.02C29.84 6.02 29.08 6.33 28.48 6.96C27.89 7.59 27.59 8.40 27.59 9.38C27.59 10.35 27.88 11.15 28.46 11.79C29.04 12.42 29.77 12.74 30.65 12.74C31.42 12.74 32.04 12.60 32.49 12.33C32.95 12.06 33.36 11.65 33.71 11.10L32.80 10.53C32.33 11.30 31.65 11.69 30.79 11.69C30.20 11.69 29.72 11.51 29.36 11.16C28.99 10.80 28.79 10.30 28.74 9.66ZM35.74 9.44L34.73 10.04C35.05 10.86 35.52 11.52 36.13 12.00C36.75 12.49 37.45 12.74 38.23 12.74C39.19 12.74 39.92 12.49 40.44 11.98C40.96 11.47 41.22 10.79 41.22 9.94C41.22 8.62 40.39 7.66 38.74 7.06C38.36 6.92 38.06 6.80 37.86 6.71C37.66 6.61 37.44 6.49 37.18 6.33C36.93 6.17 36.75 5.99 36.64 5.80C36.53 5.60 36.47 5.38 36.47 5.12C36.47 4.24 37.01 3.79 38.08 3.79C38.57 3.79 38.96 3.94 39.27 4.23C39.58 4.52 39.86 4.91 40.12 5.40L41.09 4.76C40.87 4.20 40.49 3.71 39.96 3.29C39.42 2.87 38.79 2.66 38.07 2.66C37.26 2.66 36.59 2.89 36.04 3.35C35.50 3.80 35.22 4.37 35.22 5.04C35.22 6.34 36.05 7.28 37.69 7.87C38.03 7.99 38.32 8.10 38.53 8.21C38.75 8.32 38.99 8.46 39.24 8.62C39.49 8.79 39.68 8.99 39.80 9.23C39.92 9.47 39.98 9.74 39.98 10.04C39.98 10.53 39.84 10.92 39.56 11.20C39.27 11.48 38.85 11.62 38.30 11.62C37.73 11.62 37.23 11.43 36.82 11.06C36.41 10.69 36.05 10.15 35.74 9.44ZM44.02 8.68C44.02 8.21 44.17 7.83 44.47 7.52C44.77 7.22 45.17 7.07 45.65 7.07C46.57 7.07 47.03 7.61 47.03 8.68L47.03 12.60L48.15 12.60L48.15 8.54C48.15 7.73 47.95 7.10 47.55 6.67C47.15 6.24 46.62 6.02 45.93 6.02C45.13 6.02 44.49 6.36 44.02 7.03L44.02 6.16L42.90 6.16L42.90 12.60L44.02 12.60ZM50.75 7.67C51.37 7.22 52.01 7.00 52.67 7.00C53.04 7.00 53.36 7.09 53.63 7.26C53.89 7.43 54.03 7.67 54.03 7.98L54.03 8.95C53.61 8.71 53.10 8.60 52.50 8.60C51.73 8.60 51.06 8.78 50.48 9.13C49.91 9.49 49.62 10.00 49.62 10.64C49.62 11.33 49.85 11.85 50.31 12.21C50.77 12.56 51.28 12.74 51.83 12.74C52.32 12.74 52.76 12.65 53.15 12.46C53.54 12.27 53.83 12.01 54.03 11.68L54.03 12.60L55.15 12.60L55.15 7.98C55.15 7.36 54.92 6.88 54.47 6.54C54.01 6.19 53.41 6.02 52.67 6.02C51.75 6.02 50.93 6.29 50.20 6.82ZM50.75 10.64C50.75 9.85 51.35 9.45 52.56 9.45C53.09 9.45 53.58 9.53 54.03 9.70L54.03 10.08C54.03 11.19 53.43 11.75 52.25 11.75C51.25 11.75 50.75 11.38 50.75 10.64ZM57.54 9.38C57.54 8.71 57.75 8.15 58.16 7.72C58.58 7.29 59.10 7.07 59.74 7.07C60.24 7.07 60.70 7.18 61.12 7.40C61.54 7.62 61.83 7.89 61.98 8.20L61.98 6.85C61.75 6.59 61.44 6.39 61.03 6.24C60.62 6.09 60.19 6.02 59.74 6.02C58.79 6.02 57.99 6.34 57.36 6.97C56.72 7.61 56.41 8.41 56.41 9.38C56.41 10.35 56.72 11.15 57.36 11.79C57.99 12.42 58.79 12.74 59.74 12.74C60.20 12.74 60.63 12.67 61.04 12.52C61.45 12.38 61.76 12.18 61.98 11.91L61.98 10.56C61.83 10.87 61.54 11.14 61.12 11.36C60.70 11.58 60.24 11.69 59.74 11.69C59.10 11.69 58.58 11.47 58.16 11.04C57.75 10.61 57.54 10.05 57.54 9.38ZM63.66 1.68L63.66 12.60L64.78 12.60L64.78 9.34L67.44 12.60L68.84 12.60L65.76 8.82L68.56 6.16L67.16 6.16L64.78 8.43L64.78 1.68Z"></path></g><!----><!----></svg>