<?xml version="1.0" encoding="utf-8"?>
<!-- Generator: Adobe Illustrator 17.0.0, SVG Export Plug-In . SVG Version: 6.00 Build 0)  -->
<!DOCTYPE svg PUBLIC "-//W3C//DTD SVG 1.1//EN" "http://www.w3.org/Graphics/SVG/1.1/DTD/svg11.dtd">
<svg version="1.1" id="Слой_3" xmlns="http://www.w3.org/2000/svg" xmlns:xlink="http://www.w3.org/1999/xlink" x="0px" y="0px"
	 width="128px" height="128px" viewBox="0 0 128 128" enable-background="new 0 0 128 128" xml:space="preserve">
<ellipse fill="#B8CBCD" cx="65.929" cy="106.135" rx="47.667" ry="11.813"/>
<polyline fill="#F6E89A" points="114.597,44.975 114.597,95.038 18.597,108.948 18.597,58.948 "/>
<path fill="#8D4520" d="M19.5,111.948c-0.716,0-1.415-0.257-1.963-0.731c-0.658-0.57-1.037-1.397-1.037-2.269v-50
	c0-1.657,1.343-3,3-3c1.657,0,3,1.343,3,3v46.534l90-13.041V44.975c0-1.657,1.343-3,3-3s3,1.343,3,3v50.062
	c0,1.49-1.095,2.755-2.569,2.969l-96,13.91C19.786,111.938,19.643,111.948,19.5,111.948z"/>
<path fill="#F6E89A" d="M19.129,58.946v-1.164l46.57-33.764c0,0,16.813-1.155,33.404,5.912c9.857,4.199,15.494,13.88,15.494,13.88"
	/>
<path fill="#8D4520" d="M19.129,61.946c-1.657,0-3-1.343-3-3v-1.164c0-0.961,0.461-1.864,1.239-2.429l46.57-33.764
	c0.455-0.33,0.994-0.525,1.555-0.564c0.715-0.05,17.727-1.121,34.786,6.146c10.65,4.537,16.66,14.699,16.911,15.13
	c0.833,1.432,0.349,3.269-1.083,4.103c-1.432,0.833-3.269,0.349-4.103-1.083c-0.049-0.084-5.297-8.89-14.077-12.63
	c-13.662-5.819-27.694-5.812-31.198-5.714L22.104,59.33C21.916,60.805,20.655,61.946,19.129,61.946z"/>
<path fill="#8D4520" d="M19.126,62.11c-0.977,0-1.831-0.716-1.977-1.71c-0.16-1.094,0.597-2.109,1.689-2.269l95.468-13.971
	c1.095-0.164,2.108,0.596,2.269,1.688c0.16,1.094-0.596,2.109-1.688,2.269L19.418,62.089C19.32,62.103,19.222,62.11,19.126,62.11z"
	/>
<path fill="#8D4520" d="M39.097,86.698c-5.79,0-10.5-4.71-10.5-10.5s4.71-10.5,10.5-10.5s10.5,4.71,10.5,10.5
	S44.886,86.698,39.097,86.698z M39.097,69.698c-3.584,0-6.5,2.916-6.5,6.5s2.916,6.5,6.5,6.5s6.5-2.916,6.5-6.5
	S42.681,69.698,39.097,69.698z"/>
<path opacity="0.2" fill="#8D4520" enable-background="new    " d="M45.597,80.198c-1.104,0-2-0.896-2-2c0-3.584-2.916-6.5-6.5-6.5
	c-1.104,0-2-0.896-2-2s0.896-2,2-2c5.79,0,10.5,4.71,10.5,10.5C47.597,79.302,46.701,80.198,45.597,80.198z"/>
<path fill="#8D4520" d="M93.097,89.948c-6.893,0-12.5-5.607-12.5-12.5s5.607-12.5,12.5-12.5s12.5,5.607,12.5,12.5
	S99.989,89.948,93.097,89.948z M93.097,68.948c-4.687,0-8.5,3.813-8.5,8.5s3.813,8.5,8.5,8.5s8.5-3.813,8.5-8.5
	S97.783,68.948,93.097,68.948z"/>
<path opacity="0.2" fill="#8D4520" enable-background="new    " d="M102.097,81.448c-1.657,0-3-1.343-3-3c0-4.136-3.364-7.5-7.5-7.5
	c-1.657,0-3-1.343-3-3s1.343-3,3-3c7.444,0,13.5,6.056,13.5,13.5C105.097,80.105,103.754,81.448,102.097,81.448z"/>
<path fill="#8D4520" d="M60.097,93.948c-4.136,0-7.5-3.364-7.5-7.5s3.365-7.5,7.5-7.5s7.5,3.364,7.5,7.5
	S64.233,93.948,60.097,93.948z M60.097,82.948c-1.93,0-3.5,1.57-3.5,3.5s1.57,3.5,3.5,3.5s3.5-1.57,3.5-3.5
	S62.027,82.948,60.097,82.948z"/>
<path opacity="0.2" fill="#8D4520" enable-background="new    " d="M64.097,89.448c-1.104,0-2-0.896-2-2c0-1.93-1.57-3.5-3.5-3.5
	c-1.104,0-2-0.896-2-2s0.896-2,2-2c4.136,0,7.5,3.364,7.5,7.5C66.097,88.552,65.202,89.448,64.097,89.448z"/>
<path opacity="0.2" fill="#8D4520" enable-background="new    " d="M74.597,71.171c-1.104,0-2-0.896-2-2c0-1.93-1.57-3.5-3.5-3.5
	c-1.104,0-2-0.896-2-2c0-1.104,0.896-2,2-2c4.136,0,7.5,3.364,7.5,7.5C76.597,70.275,75.701,71.171,74.597,71.171z"/>
<path fill="#8D4520" d="M71.097,73.948c-3.584,0-6.5-2.916-6.5-6.5s2.916-6.5,6.5-6.5s6.5,2.916,6.5,6.5
	S74.681,73.948,71.097,73.948z M71.097,64.948c-1.379,0-2.5,1.121-2.5,2.5s1.121,2.5,2.5,2.5s2.5-1.121,2.5-2.5
	S72.476,64.948,71.097,64.948z"/>
</svg>
