<?xml version="1.0" encoding="utf-8"?>
<!-- Generator: Adobe Illustrator 17.0.0, SVG Export Plug-In . SVG Version: 6.00 Build 0)  -->
<!DOCTYPE svg PUBLIC "-//W3C//DTD SVG 1.1//EN" "http://www.w3.org/Graphics/SVG/1.1/DTD/svg11.dtd">
<svg version="1.1" id="Слой_3" xmlns="http://www.w3.org/2000/svg" xmlns:xlink="http://www.w3.org/1999/xlink" x="0px" y="0px"
	 width="128px" height="128px" viewBox="0 0 128 128" enable-background="new 0 0 128 128" xml:space="preserve">
<ellipse fill="#B8CBCD" cx="57.264" cy="107.135" rx="47.667" ry="11.813"/>
<path fill="#F6E89A" d="M61.107,19.904c0,0,43.021-4.484,45.81,44.113C74.02,76.931,43.682,60.165,61.107,19.904z"/>
<path fill="#8D4520" d="M85.817,70.297c-12.218,0-21.914-4.519-27.304-12.724c-4.369-6.652-7.784-18.725,0.758-38.464l0.465-1.074
	l1.164-0.121c0.047-0.005,1.17-0.12,3.025-0.12c9.933,0,42.533,3.325,44.989,46.107l0.083,1.447l-1.35,0.53
	C100.284,68.769,92.735,70.297,85.817,70.297z M62.465,21.823c-5.74,13.832-5.955,25.415-0.608,33.555
	c4.625,7.042,13.135,10.919,23.96,10.919c6.001,0,12.543-1.25,19.007-3.624C101.74,22.348,69.078,21.561,62.465,21.823z"/>
<path fill="#F6E89A" d="M98.605,49.549c0,0,15.898,1.866,15.427,20.102c-0.475,18.236-62.99,57.066-71.979,23.13"/>
<path fill="#8D4520" d="M60.183,108.224c-10.43,0-17.487-5.202-20.064-14.931l3.867-1.024c2.396,9.045,9.061,12.993,19.819,11.735
	c20.953-2.451,47.942-23.442,48.228-34.405c0.419-16.224-13.086-17.996-13.661-18.063l0.467-3.973
	c0.177,0.021,17.706,2.308,17.192,22.14c-0.361,13.894-29.87,35.713-51.761,38.274C62.856,108.142,61.492,108.224,60.183,108.224z"
	/>
<path fill="#F6E89A" d="M76.441,27.383c0,0-1.866-15.898-20.103-15.425c-18.237,0.475-57.066,62.99-23.13,71.979"/>
<path fill="#8D4520" d="M32.696,85.871C21.744,82.97,16.529,74.393,18.012,61.719c2.562-21.891,24.381-51.399,38.274-51.761
	C76.082,9.445,78.405,26.973,78.427,27.15l-3.972,0.474c-0.071-0.576-1.923-14.089-18.065-13.666
	c-10.962,0.285-31.953,27.273-34.404,48.227c-1.259,10.755,2.689,17.424,11.734,19.82L32.696,85.871z"/>
<path fill="#F6E89A" d="M76.802,38.142c0,0,22.404-17.313,35.128-9.679c1.697,5.09,1.698,6.787,1.698,6.787
	s-20.36,1.696-27.996,11.027C77.997,55.61,67.47,54.261,76.802,38.142z"/>
<path fill="#8D4520" d="M76.437,54.089c-1.991,0-3.591-0.872-4.504-2.456c-1.714-2.974-0.629-7.985,3.139-14.493l0.196-0.34
	l0.312-0.24c0.636-0.492,15.729-12.041,28.696-12.041c3.297,0,6.218,0.75,8.684,2.229l0.634,0.38l0.234,0.702
	c1.713,5.137,1.801,7.081,1.801,7.419l0.001,1.84l-1.834,0.154c-0.195,0.016-19.61,1.741-26.615,10.301
	C83.877,51.581,79.761,54.089,76.437,54.089z M78.332,39.493c-3.212,5.654-3.597,8.991-2.934,10.141
	c0.085,0.147,0.262,0.454,1.038,0.454c1.739,0,4.778-1.57,7.647-5.078c6.638-8.111,21.613-10.779,27.227-11.513
	c-0.198-0.856-0.519-2.056-1.037-3.667c-1.708-0.871-3.722-1.312-5.998-1.312C93.599,28.519,80.494,37.891,78.332,39.493z"/>
<path fill="#F6E89A" d="M85.015,41.264c-5.409-5.409-1.401-11.582-6.811-16.991c-5.41-5.41-15.823,2.84-23.459,10.475
	c-7.636,7.635-39.884,44.089-22.648,61.325c14.119,14.12,49.796-13.818,60.824-24.846c11.027-11.029,12.564-17.975,7.696-22.843
	C95.747,43.514,90.424,46.674,85.015,41.264z"/>
<path fill="#8D4520" d="M42.433,101.973C42.431,101.973,42.433,101.973,42.433,101.973c-4.821,0-8.774-1.509-11.75-4.486
	c-7.924-7.923-7.347-20.599,1.668-36.656c6.586-11.731,16.287-22.804,20.98-27.497c8.494-8.494,15.413-12.8,20.565-12.8
	c2.253,0,4.179,0.783,5.722,2.326c3.193,3.193,3.609,6.634,3.977,9.669c0.332,2.739,0.618,5.105,2.834,7.321
	c2.339,2.339,4.576,2.761,7.166,3.25c2.639,0.498,5.629,1.062,8.437,3.87c8.056,8.054-0.534,18.508-7.696,25.671
	C86.726,80.25,60.857,101.973,42.433,101.973z M73.897,24.534c-3.938,0-10.237,4.13-17.737,11.629
	C51.61,40.711,42.212,51.438,35.838,62.79c-8.158,14.532-8.941,25.254-2.327,31.869c2.229,2.23,5.148,3.314,8.921,3.314
	c15.803,0,39.887-18.972,49.075-28.16c13.854-13.857,9.381-18.33,7.696-20.015c-1.935-1.934-3.883-2.302-6.35-2.767
	c-2.831-0.534-6.041-1.14-9.253-4.353c-3.193-3.192-3.609-6.633-3.977-9.669c-0.332-2.74-0.618-5.105-2.834-7.322
	C76.003,24.901,75.083,24.534,73.897,24.534z"/>
<path fill="#FFFFFF" d="M60.995,38.498c5.641-5.64,12.796-11.609,18.331-12.165c-0.418-0.696-0.946-1.384-1.622-2.059
	c-5.41-5.41-15.823,2.84-23.459,10.475c-7.636,7.635-39.884,44.089-22.648,61.325c1.84,1.84,4.048,2.96,6.518,3.502
	C21.423,82.242,53.396,46.097,60.995,38.498z"/>
<path opacity="0.2" fill="#8D4520" d="M41.53,101.679c-4.953,0-9.064-1.62-12.305-4.86c-1.172-1.171-1.172-3.071,0-4.243
	c1.172-1.171,3.07-1.171,4.242,0c6.276,6.276,18.063,1.673,26.849-3.295C71.032,83.22,81.819,74.086,87.8,68.106
	c6.13-6.131,9.31-11.891,8.725-15.802c-0.267-1.78-1.357-3.155-3.335-4.206c-1.464-0.777-2.02-2.594-1.242-4.057
	c0.777-1.463,2.596-2.019,4.057-1.242c3.671,1.95,5.902,4.93,6.454,8.617c0.896,5.983-2.706,13.222-10.416,20.933
	c-6.247,6.248-17.531,15.798-28.772,22.156C54.815,99.286,47.551,101.679,41.53,101.679z"/>
<path fill="#8D4520" d="M60.632,110.395c-0.001,0-0.002,0-0.004,0c-6.641-0.001-12.055-2.195-15.767-6.367
	c-0.161,0.003-0.323,0.005-0.485,0.005c-4.502,0-10.682-1.37-14.525-5.214c-4.03-4.029-6.494-9.949-6.648-15.789
	c-7.171-5.307-9.338-14.812-6.093-26.999C22.384,36.218,42.98,9.32,56.815,8.959c0.294-0.007,0.583-0.011,0.868-0.011
	c10.313,0,15.897,4.799,18.862,9.273c5.111,1.143,10.481,2.75,15.833,6.811c3.511-1.242,7.174-1.893,10.694-1.893
	c4.168,0,7.956,0.951,10.956,2.751c0.613,0.368,1.075,0.944,1.302,1.623c1.794,5.378,1.887,8.776,1.892,9.146
	c0.021,1.657-1.305,3.017-2.962,3.038c-0.046,0.001-4.057,0.077-9.165,1.257c1.346,2.693,2.355,5.521,3.271,9.076
	c4.598,3.062,9.499,8.875,9.22,19.698c-0.224,8.599-10.643,19.146-20.319,26.149C84.705,104.968,71.011,110.395,60.632,110.395z
	 M46.222,97.948c0.946,0,1.844,0.447,2.413,1.217c2.563,3.47,6.599,5.229,11.994,5.23c20.966,0.002,50.681-24.174,50.958-34.822
	c0.182-7.036-2.291-12.1-7.351-15.049c-0.707-0.412-1.215-1.094-1.406-1.889c-1.219-5.062-2.559-8.418-4.778-11.973
	c-0.491-0.786-0.591-1.755-0.271-2.625s1.025-1.543,1.909-1.823c4.378-1.388,8.446-2.01,11.152-2.289
	c-0.183-0.934-0.452-2.077-0.85-3.395c-1.923-0.912-4.291-1.39-6.921-1.39c-3.259,0-6.838,0.739-10.078,2.08
	c-1.035,0.427-2.224,0.245-3.081-0.478c-5.197-4.38-10.475-5.775-15.874-6.926c-0.832-0.177-1.55-0.7-1.975-1.437
	c-2.939-5.104-7.979-7.6-15.094-7.422c-9.24,0.241-28.77,22.731-34.063,42.618c-1.918,7.203-2.629,16.747,4.873,21.31
	c0.944,0.574,1.497,1.622,1.437,2.726c-0.252,4.662,1.661,9.751,4.876,12.966c2.067,2.067,6.2,3.457,10.283,3.457
	c0.533,0,1.059-0.024,1.562-0.072C46.033,97.952,46.128,97.948,46.222,97.948z"/>
<path opacity="0.2" fill="#8D4520" d="M59.557,107.197c-6.201,0-11.116-2.068-14.319-6.145l4.719-3.707
	c4.661,5.933,14.681,3.729,20.237,1.887c18.615-6.168,37.1-23.048,37.311-31.146c0.245-9.479-2.41-11.833-4.918-13.296l3.021-5.184
	c5.784,3.373,8.146,8.946,7.895,18.635c-0.324,12.473-23.047,30.597-41.421,36.686C67.501,106.445,63.295,107.197,59.557,107.197z"
	/>
<path fill="#8D4520" d="M42.433,101.973C42.431,101.973,42.433,101.973,42.433,101.973c-4.821,0-8.774-1.509-11.75-4.486
	c-7.924-7.923-7.347-20.599,1.668-36.656c6.586-11.731,16.287-22.804,20.98-27.497c8.494-8.494,15.413-12.8,20.565-12.8
	c2.253,0,4.179,0.783,5.722,2.326c3.193,3.193,3.609,6.634,3.977,9.669c0.332,2.739,0.618,5.105,2.834,7.321
	c2.339,2.339,4.576,2.761,7.166,3.25c2.639,0.498,5.629,1.062,8.437,3.87c8.056,8.054-0.534,18.508-7.696,25.671
	C86.726,80.25,60.857,101.973,42.433,101.973z M73.897,24.534c-3.938,0-10.237,4.13-17.737,11.629
	C51.61,40.711,42.212,51.438,35.838,62.79c-8.158,14.532-8.941,25.254-2.327,31.869c2.229,2.23,5.148,3.314,8.921,3.314
	c15.803,0,39.887-18.972,49.075-28.16c13.854-13.857,9.381-18.33,7.696-20.015c-1.935-1.934-3.883-2.302-6.35-2.767
	c-2.831-0.534-6.041-1.14-9.253-4.353c-3.193-3.192-3.609-6.633-3.977-9.669c-0.332-2.74-0.618-5.105-2.834-7.322
	C76.003,24.901,75.083,24.534,73.897,24.534z"/>
</svg>
